HIERARCHY
ROOT Hips
{
  OFFSET 0.000000 95.000000 0.000000
  CHANNELS 6 Xposition Yposition Zposition Zrotation Xrotation Yrotation
  JOINT Spine
  {
    OFFSET 0.000000 10.000000 0.000000
    CHANNELS 3 Zrotation Xrotation Yrotation
    JOINT Spine1
    {
      OFFSET 0.000000 12.000000 0.000000
      CHANNELS 3 Zrotation Xrotation Yrotation
      JOINT Spine2
      {
        OFFSET 0.000000 12.000000 0.000000
        CHANNELS 3 Zrotation Xrotation Yrotation
        JOINT Neck
        {
          OFFSET 0.000000 10.000000 0.000000
          CHANNELS 3 Zrotation Xrotation Yrotation
          JOINT Head
          {
            OFFSET 0.000000 8.000000 0.000000
            CHANNELS 3 Zrotation Xrotation Yrotation
            End Site
            {
              OFFSET 0.000000 10.000000 0.000000
            }
          }
        }
        JOINT LeftShoulder
        {
          OFFSET 6.000000 8.000000 0.000000
          CHANNELS 3 Zrotation Xrotation Yrotation
          JOINT LeftArm
          {
            OFFSET 12.000000 0.000000 0.000000
            CHANNELS 3 Zrotation Xrotation Yrotation
            JOINT LeftForeArm
            {
              OFFSET 24.000000 0.000000 0.000000
              CHANNELS 3 Zrotation Xrotation Yrotation
              JOINT LeftHand
              {
                OFFSET 22.000000 0.000000 0.000000
                CHANNELS 3 Zrotation Xrotation Yrotation
                JOINT LeftHandThumb1
                {
                  OFFSET 1.800000 -1.400000 0.500000
                  CHANNELS 3 Zrotation Xrotation Yrotation
                  JOINT LeftHandThumb2
                  {
                    OFFSET 2.400000 0.000000 0.000000
                    CHANNELS 3 Zrotation Xrotation Yrotation
                    JOINT LeftHandThumb3
                    {
                      OFFSET 1.900000 0.000000 0.000000
                      CHANNELS 3 Zrotation Xrotation Yrotation
                      End Site
                      {
                        OFFSET 1.600000 0.000000 0.000000
                      }
                    }
                  }
                }
                JOINT LeftHandIndex1
                {
                  OFFSET 6.600000 1.200000 0.300000
                  CHANNELS 3 Zrotation Xrotation Yrotation
                  JOINT LeftHandIndex2
                  {
                    OFFSET 2.000000 0.000000 0.000000
                    CHANNELS 3 Zrotation Xrotation Yrotation
                    JOINT LeftHandIndex3
                    {
                      OFFSET 1.200000 0.000000 0.000000
                      CHANNELS 3 Zrotation Xrotation Yrotation
                      End Site
                      {
                        OFFSET 1.000000 0.000000 0.000000
                      }
                    }
                  }
                }
                JOINT LeftHandMiddle1
                {
                  OFFSET 7.200000 0.000000 0.300000
                  CHANNELS 3 Zrotation Xrotation Yrotation
                  JOINT LeftHandMiddle2
                  {
                    OFFSET 3.000000 0.000000 0.000000
                    CHANNELS 3 Zrotation Xrotation Yrotation
                    JOINT LeftHandMiddle3
                    {
                      OFFSET 2.000000 0.000000 0.000000
                      CHANNELS 3 Zrotation Xrotation Yrotation
                      End Site
                      {
                        OFFSET 1.600000 0.000000 0.000000
                      }
                    }
                  }
                }
                JOINT LeftHandRing1
                {
                  OFFSET 7.100000 -1.000000 0.400000
                  CHANNELS 3 Zrotation Xrotation Yrotation
                  JOINT LeftHandRing2
                  {
                    OFFSET 2.600000 0.000000 0.000000
                    CHANNELS 3 Zrotation Xrotation Yrotation
                    JOINT LeftHandRing3
                    {
                      OFFSET 1.600000 0.000000 0.000000
                      CHANNELS 3 Zrotation Xrotation Yrotation
                      End Site
                      {
                        OFFSET 1.300000 0.000000 0.000000
                      }
                    }
                  }
                }
                JOINT LeftHandPinky1
                {
                  OFFSET 6.500000 -2.000000 0.500000
                  CHANNELS 3 Zrotation Xrotation Yrotation
                  JOINT LeftHandPinky2
                  {
                    OFFSET 1.900000 0.000000 0.000000
                    CHANNELS 3 Zrotation Xrotation Yrotation
                    JOINT LeftHandPinky3
                    {
                      OFFSET 1.400000 0.000000 0.000000
                      CHANNELS 3 Zrotation Xrotation Yrotation
                      End Site
                      {
                        OFFSET 1.300000 0.000000 0.000000
                      }
                    }
                  }
                }
              }
            }
          }
        }
        JOINT RightShoulder
        {
          OFFSET -6.000000 8.000000 0.000000
          CHANNELS 3 Zrotation Xrotation Yrotation
          JOINT RightArm
          {
            OFFSET -12.000000 0.000000 0.000000
            CHANNELS 3 Zrotation Xrotation Yrotation
            JOINT RightForeArm
            {
              OFFSET -24.000000 0.000000 0.000000
              CHANNELS 3 Zrotation Xrotation Yrotation
              JOINT RightHand
              {
                OFFSET -22.000000 0.000000 0.000000
                CHANNELS 3 Zrotation Xrotation Yrotation
                JOINT RightHandThumb1
                {
                  OFFSET -1.800000 -1.400000 0.500000
                  CHANNELS 3 Zrotation Xrotation Yrotation
                  JOINT RightHandThumb2
                  {
                    OFFSET -2.400000 0.000000 0.000000
                    CHANNELS 3 Zrotation Xrotation Yrotation
                    JOINT RightHandThumb3
                    {
                      OFFSET -1.900000 0.000000 0.000000
                      CHANNELS 3 Zrotation Xrotation Yrotation
                      End Site
                      {
                        OFFSET -1.600000 0.000000 0.000000
                      }
                    }
                  }
                }
                JOINT RightHandIndex1
                {
                  OFFSET -6.600000 1.200000 0.300000
                  CHANNELS 3 Zrotation Xrotation Yrotation
                  JOINT RightHandIndex2
                  {
                    OFFSET -2.000000 0.000000 0.000000
                    CHANNELS 3 Zrotation Xrotation Yrotation
                    JOINT RightHandIndex3
                    {
                      OFFSET -1.200000 0.000000 0.000000
                      CHANNELS 3 Zrotation Xrotation Yrotation
                      End Site
                      {
                        OFFSET -1.000000 0.000000 0.000000
                      }
                    }
                  }
                }
                JOINT RightHandMiddle1
                {
                  OFFSET -7.200000 0.000000 0.300000
                  CHANNELS 3 Zrotation Xrotation Yrotation
                  JOINT RightHandMiddle2
                  {
                    OFFSET -3.000000 0.000000 0.000000
                    CHANNELS 3 Zrotation Xrotation Yrotation
                    JOINT RightHandMiddle3
                    {
                      OFFSET -2.000000 0.000000 0.000000
                      CHANNELS 3 Zrotation Xrotation Yrotation
                      End Site
                      {
                        OFFSET -1.600000 0.000000 0.000000
                      }
                    }
                  }
                }
                JOINT RightHandRing1
                {
                  OFFSET -7.100000 -1.000000 0.400000
                  CHANNELS 3 Zrotation Xrotation Yrotation
                  JOINT RightHandRing2
                  {
                    OFFSET -2.600000 0.000000 0.000000
                    CHANNELS 3 Zrotation Xrotation Yrotation
                    JOINT RightHandRing3
                    {
                      OFFSET -1.600000 0.000000 0.000000
                      CHANNELS 3 Zrotation Xrotation Yrotation
                      End Site
                      {
                        OFFSET -1.300000 0.000000 0.000000
                      }
                    }
                  }
                }
                JOINT RightHandPinky1
                {
                  OFFSET -6.500000 -2.000000 0.500000
                  CHANNELS 3 Zrotation Xrotation Yrotation
                  JOINT RightHandPinky2
                  {
                    OFFSET -1.900000 0.000000 0.000000
                    CHANNELS 3 Zrotation Xrotation Yrotation
                    JOINT RightHandPinky3
                    {
                      OFFSET -1.400000 0.000000 0.000000
                      CHANNELS 3 Zrotation Xrotation Yrotation
                      End Site
                      {
                        OFFSET -1.300000 0.000000 0.000000
                      }
                    }
                  }
                }
              }
            }
          }
        }
      }
    }
  }
  JOINT LeftUpLeg
  {
    OFFSET 10.000000 -5.000000 0.000000
    CHANNELS 3 Zrotation Xrotation Yrotation
    JOINT LeftLeg
    {
      OFFSET 0.000000 -42.000000 0.000000
      CHANNELS 3 Zrotation Xrotation Yrotation
      JOINT LeftFoot
      {
        OFFSET 0.000000 -42.000000 4.000000
        CHANNELS 3 Zrotation Xrotation Yrotation
        End Site
        {
          OFFSET 0.000000 0.000000 12.000000
        }
      }
    }
  }
  JOINT RightUpLeg
  {
    OFFSET -10.000000 -5.000000 0.000000
    CHANNELS 3 Zrotation Xrotation Yrotation
    JOINT RightLeg
    {
      OFFSET 0.000000 -42.000000 0.000000
      CHANNELS 3 Zrotation Xrotation Yrotation
      JOINT RightFoot
      {
        OFFSET 0.000000 -42.000000 4.000000
        CHANNELS 3 Zrotation Xrotation Yrotation
        End Site
        {
          OFFSET 0.000000 0.000000 12.000000
        }
      }
    }
  }
}
MOTION
Frames: 4
Frame Time: 0.033333
0.0000 95.0000 0.0000 0.0000 0.0000 0.0000 0.0000 0.0000 0.0000 0.0000 0.0000 0.0000 0.0000 0.0000 0.0000 0.0000 0.0000 0.0000 0.0000 0.0000 0.0000 0.0000 0.0000 0.0000 -75.9393 -15.3401 -19.5813 -173.0768 41.7958 -293.5396 -216.8994 -69.4694 -115.2659 59.7289 -11.2526 11.0140 12.1788 0.0000 0.0000 20.4965 0.0000 0.0000 -9.9667 0.5505 -1.1127 3.0439 0.0000 0.0000 2.8647 0.0000 0.0000 2.0181 -0.0388 -2.5668 1.5588 0.0000 0.0000 0.2239 0.0000 0.0000 12.0682 -0.7186 -1.3480 2.7549 0.0000 0.0000 2.5329 0.0000 0.0000 22.8104 -1.5267 1.4931 6.3501 0.0000 0.0000 1.8524 0.0000 0.0000 0.0000 0.0000 0.0000 88.3452 -21.7313 22.3524 189.0250 36.5744 -66.6717 -53.4235 52.6811 -66.5287 -12.3429 2.6994 -9.3976 6.4579 0.0000 0.0000 15.6635 0.0000 0.0000 10.8820 -0.1696 -7.7069 3.5290 0.0000 0.0000 2.9290 0.0000 0.0000 0.8375 0.1042 -9.4129 2.0926 0.0000 0.0000 1.8391 0.0000 0.0000 -5.3281 0.7833 -11.4595 2.0979 0.0000 0.0000 1.0955 0.0000 0.0000 -13.3640 1.4878 -13.3785 5.5666 0.0000 0.0000 2.3551 0.0000 0.0000 0.0000 0.0000 0.0000 0.0000 0.0000 0.0000 0.0000 0.0000 0.0000 0.0000 0.0000 0.0000 0.0000 0.0000 0.0000 0.0000 0.0000 0.0000
0.0000 95.0000 0.0000 0.0000 0.0000 0.0000 0.0000 0.0000 0.0000 0.0000 0.0000 0.0000 0.0000 0.0000 0.0000 0.0000 0.0000 0.0000 0.0000 0.0000 0.0000 0.0000 0.0000 0.0000 -75.5976 -15.7228 -20.1873 -174.1114 43.8120 -292.2303 -220.8068 -65.7662 -107.6735 58.7957 -10.6967 13.2417 14.4746 0.0000 0.0000 15.4338 0.0000 0.0000 -15.0770 0.6360 0.7707 4.1398 0.0000 0.0000 1.9871 0.0000 0.0000 -2.9125 0.1139 -0.2919 2.6686 0.0000 0.0000 0.6453 0.0000 0.0000 6.5262 -0.2342 1.5769 2.0602 0.0000 0.0000 2.9336 0.0000 0.0000 16.1515 -0.5216 4.2672 7.3437 0.0000 0.0000 2.9439 0.0000 0.0000 0.0000 0.0000 0.0000 87.9265 -21.5562 22.3311 189.3205 38.7110 -67.4656 -56.4914 53.2230 -69.4484 -12.7756 3.3981 -10.7369 7.9056 0.0000 0.0000 15.8142 0.0000 0.0000 11.3358 -0.2028 -8.7352 3.3704 0.0000 0.0000 3.1994 0.0000 0.0000 0.7919 0.1038 -10.1632 3.2281 0.0000 0.0000 2.7366 0.0000 0.0000 -5.4919 0.8100 -12.0169 3.2692 0.0000 0.0000 1.5449 0.0000 0.0000 -14.2256 1.4621 -14.1655 6.7406 0.0000 0.0000 2.6137 0.0000 0.0000 0.0000 0.0000 0.0000 0.0000 0.0000 0.0000 0.0000 0.0000 0.0000 0.0000 0.0000 0.0000 0.0000 0.0000 0.0000 0.0000 0.0000 0.0000
0.0000 95.0000 0.0000 0.0000 0.0000 0.0000 0.0000 0.0000 0.0000 0.0000 0.0000 0.0000 0.0000 0.0000 0.0000 0.0000 0.0000 0.0000 0.0000 0.0000 0.0000 0.0000 0.0000 0.0000 -74.9435 -14.9766 -19.4606 -171.9525 49.3194 -288.0846 -221.2114 -67.4793 -112.7492 63.5846 -12.7048 6.4717 15.2539 0.0000 0.0000 9.4908 0.0000 0.0000 -9.9680 1.1145 -7.1897 3.0368 0.0000 0.0000 3.0606 0.0000 0.0000 0.9439 0.0377 -9.3505 2.1492 0.0000 0.0000 1.6427 0.0000 0.0000 10.3279 -1.0385 -9.3520 5.0068 0.0000 0.0000 1.7125 0.0000 0.0000 19.4500 -2.4647 -8.0395 8.1950 0.0000 0.0000 1.0220 0.0000 0.0000 0.0000 0.0000 0.0000 87.4185 -20.7717 21.7070 188.9174 43.0449 -69.2204 -65.7273 53.2738 -77.9849 -13.3036 4.2135 -12.3296 9.1803 0.0000 0.0000 12.5117 0.0000 0.0000 13.1999 -0.1352 -11.1589 5.4051 0.0000 0.0000 3.7784 0.0000 0.0000 -0.0521 -0.0079 -12.4426 6.7323 0.0000 0.0000 2.8677 0.0000 0.0000 -6.3513 0.8526 -14.1206 7.8475 0.0000 0.0000 2.7230 0.0000 0.0000 -13.9170 2.0012 -16.7391 10.5734 0.0000 0.0000 4.3199 0.0000 0.0000 0.0000 0.0000 0.0000 0.0000 0.0000 0.0000 0.0000 0.0000 0.0000 0.0000 0.0000 0.0000 0.0000 0.0000 0.0000 0.0000 0.0000 0.0000
0.0000 95.0000 0.0000 0.0000 0.0000 0.0000 0.0000 0.0000 0.0000 0.0000 0.0000 0.0000 0.0000 0.0000 0.0000 0.0000 0.0000 0.0000 0.0000 0.0000 0.0000 0.0000 0.0000 0.0000 -74.7048 -13.5455 -17.6886 -166.7376 53.7942 -282.9564 -232.0002 -69.7246 -100.4118 63.7266 -12.9710 3.6934 16.2293 0.0000 0.0000 8.3468 0.0000 0.0000 -11.3845 1.1576 -8.0599 3.6568 0.0000 0.0000 2.0915 0.0000 0.0000 -1.5563 -0.0727 -10.1224 1.6158 0.0000 0.0000 1.4210 0.0000 0.0000 7.4112 -1.1749 -10.1395 4.6391 0.0000 0.0000 1.8510 0.0000 0.0000 16.0304 -2.5744 -8.7334 8.0563 0.0000 0.0000 1.5150 0.0000 0.0000 0.0000 0.0000 0.0000 87.0731 -19.6402 20.6484 187.8171 47.6740 -71.2798 -81.1587 57.6395 -92.2998 -13.9056 5.2566 -14.3446 6.7743 0.0000 0.0000 12.2934 0.0000 0.0000 11.3131 -0.7883 -15.7689 8.3021 0.0000 0.0000 10.3587 0.0000 0.0000 2.0836 0.3840 -16.1125 13.4638 0.0000 0.0000 14.1072 0.0000 0.0000 -4.1817 1.7196 -18.5119 17.4918 0.0000 0.0000 12.7222 0.0000 0.0000 -11.2618 3.6238 -21.5091 17.3962 0.0000 0.0000 10.9109 0.0000 0.0000 0.0000 0.0000 0.0000 0.0000 0.0000 0.0000 0.0000 0.0000 0.0000 0.0000 0.0000 0.0000 0.0000 0.0000 0.0000 0.0000 0.0000 0.0000
